HIERARCHY
ROOT Hips
{
    OFFSET 0.000000 0.000000 0.000000
    CHANNELS 6 Xposition Yposition Zposition Zrotation Xrotation Yrotation
    JOINT Spine
    {
        OFFSET -0.000000 7.236184 0.000000
        CHANNELS 3 Zrotation Xrotation Yrotation
        JOINT Spine1
        {
            OFFSET -0.000000 20.420147 0.000000
            CHANNELS 3 Zrotation Xrotation Yrotation
            JOINT Neck
            {
                OFFSET -0.000000 20.336288 1.848754
                CHANNELS 3 Zrotation Xrotation Yrotation
                JOINT Head
                {
                    OFFSET -0.000000 12.354461 -1.764923
                    CHANNELS 3 Zrotation Xrotation Yrotation
                    End Site
                    {
                        OFFSET -0.000000 22.061537 0.000000
                    }
                }
            }
            JOINT LeftShoulder
            {
                OFFSET 3.573296 18.396038 -0.314103
                CHANNELS 3 Zrotation Xrotation Yrotation
                JOINT LeftArm
                {
                    OFFSET 10.880760 0.000000 0.000000
                    CHANNELS 3 Zrotation Xrotation Yrotation
                    JOINT LeftForeArm
                    {
                        OFFSET 27.185530 0.000000 0.000000
                        CHANNELS 3 Zrotation Xrotation Yrotation
                        JOINT LeftHand
                        {
                            OFFSET 27.825975 0.000000 0.000000
                            CHANNELS 3 Zrotation Xrotation Yrotation
                            End Site
                            {
                                OFFSET 13.236923 0.000000 0.000000
                            }
                        }
                    }
                }
            }
            JOINT RightShoulder
            {
                OFFSET -3.474926 18.396038 -0.314103
                CHANNELS 3 Zrotation Xrotation Yrotation
                JOINT RightArm
                {
                    OFFSET -10.880760 0.000000 0.000000
                    CHANNELS 3 Zrotation Xrotation Yrotation
                    JOINT RightForeArm
                    {
                        OFFSET -27.185530 0.000000 0.000000
                        CHANNELS 3 Zrotation Xrotation Yrotation
                        JOINT RightHand
                        {
                            OFFSET -27.825975 0.000000 0.000000
                            CHANNELS 3 Zrotation Xrotation Yrotation
                            End Site
                            {
                                OFFSET -13.236923 0.000000 0.000000
                            }
                        }
                    }
                }
            }
        }
    }
    JOINT LeftUpLeg
    {
        OFFSET 8.824615 0.000000 0.000000
        CHANNELS 3 Zrotation Xrotation Yrotation
        JOINT LeftLeg
        {
            OFFSET -0.000000 -35.111282 0.000000
            CHANNELS 3 Zrotation Xrotation Yrotation
            JOINT LeftFoot
            {
                OFFSET -0.000000 -42.324711 0.000000
                CHANNELS 3 Zrotation Xrotation Yrotation
                JOINT LeftToeBase
                {
                    OFFSET -0.000000 -5.735999 13.236923
                    CHANNELS 3 Zrotation Xrotation Yrotation
                    End Site
                    {
                        OFFSET -0.000000 0.000000 3.529846
                    }
                }
            }
        }
    }
    JOINT RightUpLeg
    {
        OFFSET -8.824615 0.000000 0.000000
        CHANNELS 3 Zrotation Xrotation Yrotation
        JOINT RightLeg
        {
            OFFSET -0.000000 -35.111282 0.000000
            CHANNELS 3 Zrotation Xrotation Yrotation
            JOINT RightFoot
            {
                OFFSET -0.000000 -42.324711 0.000000
                CHANNELS 3 Zrotation Xrotation Yrotation
                JOINT RightToeBase
                {
                    OFFSET -0.000000 -5.735999 13.236923
                    CHANNELS 3 Zrotation Xrotation Yrotation
                    End Site
                    {
                        OFFSET -0.000000 0.000000 3.529846
                    }
                }
            }
        }
    }
}
MOTION
Frames:    7
Frame Time:    0.008333
-5.355289    83.342850    106.686462    2.157499    -26.403934    -171.871506    -1.648656    -6.114983    1.028479    0.353146    14.943060    1.070237    4.802255    16.804390    -8.515884    20.609564    11.410728    -7.969160    -0.029772    16.778376    -3.422428    -43.665970    41.496075    -41.976215    -0.704838    -14.575381    -10.423094    25.661829    -13.432073    5.451618    5.542448    17.859079    -3.468504    40.002247    43.414139    37.546421    -12.075065    -17.920725    58.290211    -20.129620    -11.054121    -1.861600    1.559174    -29.504866    -5.308736    -1.469248    7.066966    -2.826154    -0.412448    -1.619985    -8.031974    -0.507739    0.281687    0.562526    -3.877351    -22.958027    0.282626    3.233456    -1.008207    1.359798    -0.707733    -0.021336    -11.914273    0.459475    0.911621    -0.496344
-5.376578    83.332481    106.619087    2.131308    -26.206051    -171.888962    -1.662616    -6.257514    1.024957    0.358685    14.816465    1.069257    4.794220    16.759933    -8.534808    20.524212    11.060412    -7.930082    -0.018030    16.780716    -3.406321    -43.727978    41.531723    -41.899040    -0.733560    -14.468539    -10.476607    25.595583    -13.336775    5.424740    5.556638    17.833515    -3.503212    40.053444    43.360554    37.480370    -11.852612    -17.726736    57.098534    -20.669333    -11.144506    -1.766744    1.579970    -29.261557    -5.265897    -1.504256    7.078822    -2.848515    -0.447123    -1.713757    -8.051705    -0.518729    0.355566    0.574626    -3.871410    -22.739691    0.267277    3.235144    -0.949284    1.395940    -0.713642    -0.098523    -11.905819    0.471455    0.923071    -0.509276
-5.398344    83.321770    106.549957    2.104494    -26.006580    -171.907684    -1.677470    -6.400005    1.020780    0.362194    14.684947    1.067879    4.786033    16.717590    -8.552753    20.445858    10.707515    -7.889712    -0.007554    16.784258    -3.389690    -43.787994    41.567368    -41.821991    -0.764423    -14.366071    -10.532178    25.529625    -13.246627    5.395330    5.568384    17.806839    -3.537433    40.094727    43.318745    37.419708    -11.619055    -17.525589    55.924957    -21.133518    -11.222637    -1.686812    1.600255    -29.015917    -5.222818    -1.538765    7.092432    -2.871663    -0.484742    -1.811187    -8.071077    -0.531307    0.432783    0.588477    -3.865882    -22.519238    0.251650    3.237171    -0.889067    1.433572    -0.719638    -0.176054    -11.898834    0.482942    0.931879    -0.521679
-5.421064    83.310440    106.477448    2.076765    -25.800407    -171.927979    -1.693201    -6.544931    1.015993    0.363970    14.545979    1.066337    4.777226    16.676254    -8.570525    20.372906    10.344756    -7.847597    0.001771    16.788803    -3.372435    -43.847515    41.604099    -41.743759    -0.797685    -14.265180    -10.589882    25.462414    -13.158993    5.362976    5.577829    17.778683    -3.571687    40.127831    43.288517    37.363270    -11.370502    -17.314425    54.741043    -21.532921    -11.291378    -1.617877    1.620430    -28.761646    -5.178043    -1.572734    7.107976    -2.896692    -0.526359    -1.914508    -8.090634    -0.545930    0.515201    0.604586    -3.860321    -22.290672    0.235500    3.239601    -0.826764    1.474043    -0.725480    -0.255613    -11.894114    0.493804    0.938132    -0.533407
-5.444223    83.298653    106.403122    2.048897    -25.591492    -171.949539    -1.709243    -6.688378    1.010947    0.364122    14.402935    1.064870    4.767675    16.636826    -8.587995    20.307272    9.980775    -7.805042    0.009651    16.794203    -3.355369    -43.905231    41.640934    -41.666435    -0.832147    -14.167481    -10.647694    25.395248    -13.075048    5.329008    5.584494    17.749992    -3.604966    40.152916    43.270992    37.312302    -11.113135    -17.099012    53.571869    -21.858576    -11.349856    -1.559908    1.640113    -28.503433    -5.132243    -1.604939    7.124614    -2.923514    -0.571182    -2.021287    -8.109693    -0.562392    0.601335    0.622720    -3.854443    -22.058302    0.218789    3.242427    -0.764230    1.515492    -0.731392    -0.335173    -11.890470    0.503406    0.941693    -0.543777
-5.468244    83.286148    106.325508    2.020443    -25.375309    -171.972794    -1.725664    -6.832760    1.005820    0.362570    14.253545    1.063597    4.756981    16.598433    -8.605757    20.248053    9.608767    -7.761451    0.016550    16.800343    -3.338504    -43.962688    41.678688    -41.588760    -0.867924    -14.070508    -10.705666    25.326860    -12.992504    5.292884    5.588622    17.720890    -3.637483    40.171452    43.265476    37.265865    -10.843060    -16.876188    52.392693    -22.119776    -11.399875    -1.510134    1.659762    -28.235727    -5.084607    -1.635780    7.142673    -2.952744    -0.619931    -2.133792    -8.128400    -0.581164    0.692569    0.643402    -3.847894    -21.816975    0.200979    3.245459    -0.700392    1.559248    -0.737027    -0.416459    -11.888131    0.511820    0.942604    -0.552865
-5.492933    83.272949    106.245186    1.991561    -25.153156    -171.997772    -1.742486    -6.976550    1.000900    0.359661    14.099068    1.062691    4.745108    16.560844    -8.623887    20.195503    9.232018    -7.717407    0.022158    16.807049    -3.322173    -44.019474    41.716957    -41.511524    -0.904356    -13.974274    -10.762840    25.257853    -12.911104    5.255261    5.589947    17.691799    -3.668810    40.184551    43.272079    37.224045    -10.562840    -16.647963    51.210907    -22.317003    -11.440969    -1.467842    1.679159    -27.960075    -5.035591    -1.664928    7.161687    -2.983932    -0.672333    -2.251046    -8.146587    -0.602449    0.788396    0.666852    -3.840910    -21.568020    0.182470    3.249157    -0.636099    1.605466    -0.742226    -0.498822    -11.887877    0.518875    0.941077    -0.560487
